<?xml version="1.0" encoding="utf-8"?>
<!-- Generator: Adobe Illustrator 22.1.0, SVG Export Plug-In . SVG Version: 6.00 Build 0)  -->
<svg version="1.1" id="Layer_1" xmlns:v="https://vecta.io/nano"
	 xmlns="http://www.w3.org/2000/svg" xmlns:xlink="http://www.w3.org/1999/xlink" x="0px" y="0px" viewBox="0 0 630 630"
	 style="enable-background:new 0 0 630 630;" xml:space="preserve">
<style type="text/css">
	.st0{fill:#F7DF1E;}
</style>
<path class="st0" d="M35.2,35.2h559.5v559.5H35.2V35.2z"/>
<path d="M411.1,472.4c11.3,18.4,25.9,31.9,51.9,31.9c21.8,0,35.7-10.9,35.7-25.9c0-18-14.3-24.4-38.3-34.9l-13.1-5.6
	c-37.9-16.2-63.1-36.4-63.1-79.2c0-39.4,30-69.5,77-69.5c33.4,0,57.5,11.6,74.8,42.1l-40.9,26.3c-9-16.2-18.7-22.5-33.8-22.5
	c-15.4,0-25.2,9.8-25.2,22.5c0,15.8,9.8,22.2,32.3,31.9l13.1,5.6c44.7,19.2,69.9,38.7,69.9,82.6c0,47.3-37.2,73.3-87.1,73.3
	c-48.8,0-80.4-23.3-95.8-53.8L411.1,472.4z M225.4,476.9c8.3,14.7,15.8,27,33.8,27c17.3,0,28.2-6.8,28.2-33V292.1h52.6v179.5
	c0,54.4-31.9,79.2-78.5,79.2c-42.1,0-66.5-21.8-78.9-48L225.4,476.9z"/>
</svg>
