<?xml version="1.0" encoding="utf-8"?>
<svg viewBox="0 0 500 500" xmlns="http://www.w3.org/2000/svg">
  <path d="M 417.686 275.235 C 401.894 275.318 388.166 279.122 376.672 284.744 C 372.454 276.391 368.238 268.951 367.494 263.492 C 366.667 257.125 365.674 253.239 366.667 245.632 C 367.66 238.024 372.126 227.191 372.041 226.364 C 371.959 225.538 371.049 221.651 361.953 221.567 C 352.858 221.484 345.003 223.303 344.092 225.703 C 343.183 228.103 341.447 233.558 340.289 239.181 C 338.718 247.451 322.097 276.971 312.587 292.434 C 309.53 286.398 306.883 281.106 306.304 276.889 C 305.477 270.521 304.484 266.636 305.477 259.029 C 306.47 251.421 310.936 240.587 310.851 239.762 C 310.769 238.936 309.86 235.048 300.764 234.965 C 291.668 234.882 283.813 236.701 282.902 239.101 C 281.993 241.499 281.003 247.121 279.099 252.579 C 277.196 258.037 255.118 307.32 249.331 320.054 C 246.353 326.586 243.79 331.795 241.971 335.352 L 241.971 335.352 C 241.971 335.352 241.888 335.6 241.64 336.013 L 239.158 340.727 L 239.158 340.81 C 237.919 343.042 236.595 345.111 235.933 345.111 C 235.436 345.111 234.527 339.158 236.098 331.053 C 239.405 313.938 247.261 287.311 247.178 286.401 C 247.178 285.905 248.666 281.275 242.051 278.877 C 235.601 276.479 233.286 280.448 232.707 280.448 C 232.129 280.448 231.713 281.855 231.713 281.855 C 231.713 281.855 238.908 251.921 217.987 251.921 C 204.922 251.921 186.896 266.227 177.965 279.126 L 147.536 295.747 L 132.898 303.767 C 132.567 303.436 132.237 303.022 131.905 302.693 C 106.602 275.654 59.798 256.551 61.785 220.252 C 62.53 207.021 67.077 172.291 151.67 130.119 C 221.293 95.802 276.695 105.313 286.287 126.398 C 300.015 156.498 256.604 212.396 184.661 220.5 C 157.209 223.559 142.82 212.975 139.18 209.006 C 135.377 204.87 134.799 204.624 133.393 205.45 C 131.077 206.689 132.567 210.412 133.393 212.562 C 135.542 218.184 144.391 228.106 159.357 232.986 C 172.589 237.286 204.755 239.684 243.702 224.633 C 287.28 207.765 321.348 160.88 311.344 121.603 C 301.338 81.746 235.187 68.598 172.589 90.842 C 135.385 104.066 95.032 124.905 66.008 152.027 C 31.526 184.275 26.067 212.307 28.3 224.05 C 36.319 265.726 93.791 292.847 116.778 312.942 C 115.619 313.604 114.545 314.182 113.635 314.68 C 102.141 320.383 58.315 343.289 47.4 367.518 C 34.995 394.971 49.384 414.652 58.895 417.297 C 88.415 425.482 118.762 410.764 135.052 386.453 C 151.341 362.142 149.356 330.555 141.832 316.086 C 141.749 315.921 141.667 315.754 141.501 315.589 L 150.514 310.297 C 156.385 306.825 162.173 303.599 167.135 300.954 C 164.325 308.645 162.258 317.823 161.264 331.052 C 160.024 346.597 166.391 366.773 174.743 374.712 C 178.463 378.185 182.847 378.267 185.658 378.267 C 195.415 378.267 199.799 370.164 204.676 360.572 C 210.63 348.832 216.004 335.187 216.004 335.187 C 216.004 335.187 209.307 372.066 227.499 372.066 C 234.114 372.066 240.812 363.466 243.789 359.085 L 243.789 359.167 C 243.789 359.167 243.954 358.92 244.285 358.341 L 245.359 356.605 L 245.359 356.44 C 248.006 351.811 253.961 341.308 262.808 323.862 C 274.219 301.371 285.217 273.254 285.217 273.254 C 285.217 273.254 286.21 280.117 289.598 291.528 C 291.583 298.227 295.719 305.586 299.025 312.696 C 296.38 316.417 294.725 318.484 294.725 318.484 L 294.809 318.569 C 292.659 321.379 290.344 324.439 287.78 327.415 C 278.766 338.165 268.015 350.486 266.529 354.041 C 264.792 358.258 265.205 361.317 268.512 363.798 C 270.91 365.618 275.21 365.865 279.592 365.618 C 287.696 365.04 293.401 363.053 296.214 361.814 C 300.595 360.242 305.722 357.846 310.518 354.29 C 319.366 347.757 324.741 338.413 324.246 326.091 C 323.998 319.311 321.766 312.531 319.036 306.164 C 319.861 305.005 320.607 303.847 321.433 302.691 C 335.408 282.267 346.24 259.858 346.24 259.858 C 346.24 259.858 347.233 266.722 350.623 278.133 C 352.277 283.921 355.665 290.205 358.643 296.325 C 345.495 306.991 337.391 319.395 334.498 327.5 C 329.287 342.55 333.339 349.33 341.031 350.9 C 344.502 351.646 349.464 349.991 353.103 348.42 C 357.732 346.931 363.191 344.368 368.402 340.564 C 377.248 334.031 385.766 324.936 385.271 312.615 C 385.023 306.991 383.534 301.452 381.467 296.078 C 392.63 291.447 407.019 288.883 425.376 291.033 C 464.736 295.663 472.509 320.222 471.021 330.559 C 469.533 340.895 461.264 346.519 458.535 348.255 C 455.805 349.991 454.896 350.572 455.145 351.811 C 455.477 353.629 456.798 353.547 459.113 353.217 C 462.339 352.639 479.787 344.864 480.53 325.845 C 481.769 301.535 458.617 274.99 417.685 275.238 L 417.685 275.238 Z M 114.05 377.604 C 100.985 391.827 82.794 397.202 74.938 392.655 C 66.504 387.777 69.811 366.773 85.853 351.724 C 95.609 342.545 108.179 334.027 116.53 328.818 L 124.635 323.938 C 125.213 323.607 125.544 323.442 125.544 323.442 L 125.544 323.442 L 127.528 322.203 C 133.401 343.703 127.777 362.638 114.05 377.604 L 114.05 377.604 Z M 209.143 312.941 C 204.596 324.021 195.086 352.385 189.299 350.814 C 184.337 349.49 181.278 327.991 188.306 306.74 C 191.861 296.073 199.385 283.34 203.769 278.378 C 210.879 270.438 218.736 267.793 220.639 271.018 C 223.035 275.235 211.956 305.997 209.143 312.942 L 209.143 312.942 Z M 287.616 350.482 C 285.715 351.475 283.895 352.137 283.067 351.64 C 282.489 351.309 283.894 349.985 283.894 349.985 C 283.894 349.985 293.734 339.4 297.621 334.605 L 305.312 324.766 L 305.312 325.84 C 305.312 338.491 293.075 347.008 287.616 350.482 L 287.616 350.482 Z M 348.144 336.673 C 346.739 335.68 346.987 332.374 351.699 322.036 C 353.519 317.985 357.82 311.203 365.179 304.672 C 366.005 307.317 366.586 309.882 366.502 312.279 C 366.418 328.24 355.008 334.192 348.144 336.673 L 348.144 336.673 Z" fill="#cd6799" style=""/>
</svg>