<svg width="20" height="20" viewBox="0 0 20 20" fill="none" xmlns="http://www.w3.org/2000/svg">
<g clip-path="url(#clip0)">
<path d="M2.66571 0.013916C1.19693 0.013916 0.00107541 1.20954 0 2.67947C0 4.1494 1.19586 5.34526 2.66571 5.34526C4.13503 5.34526 5.33027 4.1494 5.33027 2.67947C5.33027 1.20969 4.13495 0.013916 2.66571 0.013916Z" fill="white"/>
<path d="M4.66629 6.41626H0.664692C0.474344 6.41626 0.319946 6.57058 0.319946 6.76108V19.641C0.319946 19.8315 0.474344 19.9858 0.664692 19.9858H4.66621C4.85664 19.9858 5.01103 19.8314 5.01103 19.641V6.76108C5.01111 6.5705 4.85671 6.41626 4.66629 6.41626Z" fill="white"/>
<path d="M14.8963 6.26465C13.4319 6.26465 12.145 6.71056 11.3597 7.43769V6.7611C11.3597 6.5706 11.2053 6.41628 11.0149 6.41628H7.17637C6.98594 6.41628 6.83154 6.5706 6.83154 6.7611V19.6411C6.83154 19.8315 6.98594 19.9858 7.17637 19.9858H11.1741C11.3645 19.9858 11.5189 19.8314 11.5189 19.6411V13.2687C11.5189 11.4404 11.8552 10.3071 13.5336 10.3071C15.1871 10.3091 15.3108 11.5243 15.3108 13.3779V19.6411C15.3108 19.8315 15.4652 19.9858 15.6557 19.9858H19.6553C19.8457 19.9858 20.0001 19.8314 20.0001 19.6411V12.5758C20 9.63744 19.4199 6.26465 14.8963 6.26465Z" fill="white"/>
</g>
<defs>
<clipPath id="clip0">
<rect width="20" height="20" fill="white"/>
</clipPath>
</defs>
</svg>
